<svg xmlns="http://www.w3.org/2000/svg"><linearGradient id="a" x1="24" x2="24" y1="6.708" y2="14.977" gradientUnits="userSpaceOnUse"><stop offset="0" stop-color="#eba600"/><stop offset="1" stop-color="#c28200"/></linearGradient><path fill="url(#a)" d="m24.414 10.414-2.536-2.536A3 3 0 0 0 19.757 7H5a2 2 0 0 0-2 2v30a2 2 0 0 0 2 2h38a2 2 0 0 0 2-2V13a2 2 0 0 0-2-2H25.828a2 2 0 0 1-1.414-.586z"/><linearGradient id="b" x1="24" x2="24" y1="10.854" y2="40.983" gradientUnits="userSpaceOnUse"><stop offset="0" stop-color="#ffd869"/><stop offset="1" stop-color="#fec52b"/></linearGradient><path fill="url(#b)" d="m21.586 14.414 3.268-3.268a.5.5 0 0 1 .353-.146H43a2 2 0 0 1 2 2v26a2 2 0 0 1-2 2H5a2 2 0 0 1-2-2V15.5a.5.5 0 0 1 .5-.5h16.672a2 2 0 0 0 1.414-.586z"/></svg>