<svg xmlns="http://www.w3.org/2000/svg" width="70" height="70" version="1.0" viewBox="0 0 480 480"><path d="M180.2 45c-27.7 7.3-46.5 28.6-51.6 58.2l-.7 3.8h32.6l1.3-5.3c2.5-10.8 13.4-22 24.8-25.3 4.4-1.3 18.3-1.4 100.5-1.2l95.4.3 7.3 2.7c12 4.5 17.3 7.9 26.8 17.3 10.3 10.2 15 18.3 18.4 31.9 1.9 7.6 2 11.2 2 100.6 0 78.8-.2 93.4-1.5 97.6-3.3 11.3-14.4 22.1-25.2 24.6l-5.3 1.3v32.6l3.8-.6c26.8-4.4 47.7-21.6 56.6-46.4l3.1-8.6V228c0-82.7-.2-101.5-1.4-106-5.7-22.5-19.8-44.7-36.3-57.3-13.7-10.4-32.1-18.6-46.7-20.7-3.8-.6-46.4-.9-101.6-.9-90.2 0-95.4.1-102.3 1.9z"/><path d="M97.5 129.6c-3.8.8-11.3 3.6-16.5 6.1-7.9 3.9-10.9 6.1-18 13.2-9.7 9.8-14.6 18.5-18 31.6-1.9 7.6-2 10.9-2 118 0 106.9.1 110.4 2 118.1 3.4 13.5 8.1 21.7 18.4 32 10.3 10.3 18.5 15 32 18.4 7.7 1.9 11.2 2 118.1 2 107.1 0 110.4-.1 118-2 13.1-3.4 21.8-8.3 31.6-18 7.1-7.1 9.3-10.1 13.2-18 8.1-16.7 7.8-10.6 7.5-136l-.3-110.5-2.7-7.8c-7.5-22-23.5-38-45.5-45.5l-7.8-2.7-111.5-.2c-95-.1-112.5.1-118.5 1.3zm232 33.7c7.9 3.7 15.6 11.4 19.2 19.1l2.8 6.1v109c0 90.8-.2 109.8-1.4 113.9-1.9 6.4-8.7 15.5-14.6 19.4-9.9 6.5-4.1 6.3-124.2 6l-108.8-.3-6.6-3.2c-8.2-4.1-13.1-9-17.2-17.2l-3.2-6.6v-222l2.7-5.7c4.5-9.6 15.1-18.2 25.5-20.7 2.2-.5 51-.9 111.8-.8l108 .2 6 2.8z"/></svg>
